<svg xmlns="http://www.w3.org/2000/svg" viewBox="0 0 64 64"><defs><linearGradient id="s-fa" x1="1" y1="1" x2="0" y2="0"><stop offset="0" stop-color="#a9524b"/><stop offset="1" stop-color="#cf7c6a"/></linearGradient><linearGradient id="s-fb" x1="1" y1="1" x2="0" y2="0"><stop offset="0" stop-color="#c8664f"/><stop offset="1" stop-color="#e9a283"/></linearGradient><linearGradient id="s-fc" x1="1" y1="0" x2="0" y2="0"><stop offset="0" stop-color="#e7ae95"/><stop offset="1" stop-color="#f5d6c4"/></linearGradient><linearGradient id="s-fd" x1="1" y1="0" x2="0" y2="0"><stop offset="0" stop-color="#b8605c"/><stop offset="1" stop-color="#d98f80"/></linearGradient><linearGradient id="s-bd" x1="0" y1="0" x2="0" y2="1"><stop offset="0" stop-color="#f4d9c8"/><stop offset=".45" stop-color="#edc1ac"/><stop offset=".62" stop-color="#cf7f79"/><stop offset="1" stop-color="#b45e5c"/></linearGradient></defs><rect width="64" height="64" rx="16" fill="#f8f3ec"/><g transform="translate(2 8) scale(0.5)"><g transform="translate(0 0)"><g stroke="#f8f3ec" stroke-width="0.9" stroke-linejoin="round"><path d="M46 33C44 20 40 10 35 2 29 14 30 28 39 40Z" fill="url(#s-fa)"/><path d="M42 38C34 25 24 16 11 11 13 25 23 37 39 43Z" fill="url(#s-fb)"/><path d="M40 43C30 37 17 32 4 32 11 42 25 47 39 47Z" fill="url(#s-fc)"/><path d="M41 47C31 47 20 49 11 54 21 58 33 56 43 51Z" fill="url(#s-fd)"/><path d="M49 13.5C53.4 13.5 56 17 55.2 21 54.7 23.8 53 26 53.6 30 55 37 55 44 50.5 49 46.5 53 40 53 37.5 49 36 45 38 37 41 30.5 42.6 27 43 22 44 18.5 45 15.5 46.8 13.5 49 13.5Z" fill="url(#s-bd)"/></g><path d="M54.9 18.6 59 20.3 54.7 21.8Z" fill="#c46a55"/><circle cx="51.6" cy="18.4" r="1.1" fill="#2a1a16"/><g transform="translate(120 0) scale(-1 1)"><g stroke="#f8f3ec" stroke-width="0.9" stroke-linejoin="round"><path d="M46 33C44 20 40 10 35 2 29 14 30 28 39 40Z" fill="url(#s-fa)"/><path d="M42 38C34 25 24 16 11 11 13 25 23 37 39 43Z" fill="url(#s-fb)"/><path d="M40 43C30 37 17 32 4 32 11 42 25 47 39 47Z" fill="url(#s-fc)"/><path d="M41 47C31 47 20 49 11 54 21 58 33 56 43 51Z" fill="url(#s-fd)"/><path d="M49 13.5C53.4 13.5 56 17 55.2 21 54.7 23.8 53 26 53.6 30 55 37 55 44 50.5 49 46.5 53 40 53 37.5 49 36 45 38 37 41 30.5 42.6 27 43 22 44 18.5 45 15.5 46.8 13.5 49 13.5Z" fill="url(#s-bd)"/></g><path d="M54.9 18.6 59 20.3 54.7 21.8Z" fill="#c46a55"/><circle cx="51.6" cy="18.4" r="1.1" fill="#2a1a16"/></g></g></g></svg>